<svg xmlns="http://www.w3.org/2000/svg" width="32" height="32" viewBox="0 0 32 32">
  <!-- Fondo del favicon -->
  <rect width="32" height="32" rx="6" fill="#121212"/>
  
  <!-- Elementos de red -->
  <g fill="none" stroke="#0066ff" stroke-width="1.5">
    <!-- Nodos principales -->
    <circle cx="10" cy="10" r="3" fill="#0066ff" opacity="0.8"/>
    <circle cx="22" cy="10" r="2" fill="#0066ff" opacity="0.6"/>
    <circle cx="16" cy="16" r="4" fill="#0066ff" opacity="1"/>
    <circle cx="8" cy="22" r="2" fill="#0066ff" opacity="0.6"/>
    <circle cx="24" cy="22" r="3" fill="#0066ff" opacity="0.8"/>
    
    <!-- Conexiones entre nodos -->
    <line x1="10" y1="10" x2="16" y2="16" stroke-opacity="0.6"/>
    <line x1="22" y1="10" x2="16" y2="16" stroke-opacity="0.6"/>
    <line x1="8" y1="22" x2="16" y2="16" stroke-opacity="0.6"/>
    <line x1="24" y1="22" x2="16" y2="16" stroke-opacity="0.6"/>
    <line x1="10" y1="10" x2="22" y2="10" stroke-opacity="0.4" stroke-dasharray="1 1"/>
    <line x1="8" y1="22" x2="24" y2="22" stroke-opacity="0.4" stroke-dasharray="1 1"/>
  </g>
  
  <!-- Detalles técnicos -->
  <g fill="#ffffff">
    <!-- Pequeños puntos de datos -->
    <circle cx="13" cy="13" r="0.5" opacity="0.8"/>
    <circle cx="19" cy="13" r="0.5" opacity="0.8"/>
    <circle cx="13" cy="19" r="0.5" opacity="0.8"/>
    <circle cx="19" cy="19" r="0.5" opacity="0.8"/>
    
    <!-- Símbolos de código/datos -->
    <rect x="15.5" y="15.5" width="1" height="1" opacity="0.9"/>
    <rect x="15.5" y="13.5" width="1" height="1" opacity="0.7"/>
    <rect x="13.5" y="15.5" width="1" height="1" opacity="0.7"/>
    <rect x="17.5" y="15.5" width="1" height="1" opacity="0.7"/>
    <rect x="15.5" y="17.5" width="1" height="1" opacity="0.7"/>
  </g>
</svg>